<svg width="100" height="100" viewBox="0 0 100 100" fill="none" xmlns="http://www.w3.org/2000/svg">
<g id="B-r 1">
<g id="rond seul">
<path id="Vector"
d="M50 96.25C75.5432 96.25 96.25 75.5432 96.25 50C96.25 24.4568 75.5432 3.75 50 3.75C24.4568 3.75 3.75 24.4568 3.75 50C3.75 75.5432 24.4568 96.25 50 96.25Z"
  fill="#FF331F"
  stroke="#1F1F1F"
  strokeWidth="5"
  strokeMiterlimit="10"/>
</g>
<g id="lettres-no-vecto">
<path id="Vector_2" d="M35 79.65V20H43.9625C47.95 20 51.1375 20.3125 53.5 20.925C55.9 21.55 57.9125 22.5875 59.5625 24.05C61.2375 25.575 62.5625 27.4625 63.5375 29.725C64.5375 32.0125 65.05 34.3375 65.05 36.675C65.05 40.95 63.4125 44.5625 60.15 47.525C63.3125 48.6125 65.8125 50.5 67.65 53.2C69.5 55.875 70.4375 59 70.4375 62.55C70.4375 67.2125 68.7875 71.15 65.4875 74.375C63.5 76.3625 61.275 77.7375 58.8 78.5125C56.1 79.2625 52.7125 79.6375 48.6375 79.6375H35V79.65ZM44 45.6125H46.825C50.175 45.6125 52.625 44.875 54.1875 43.3875C55.75 41.9125 56.525 39.725 56.525 36.8375C56.525 33.95 55.725 31.9 54.125 30.45C52.525 29 50.2125 28.2625 47.175 28.2625H44.0125V45.6125H44ZM44 71.1875H49.5625C53.625 71.1875 56.625 70.3875 58.525 68.7875C60.5375 67.0625 61.5375 64.875 61.5375 62.225C61.5375 59.575 60.575 57.4875 58.6375 55.7375C56.7625 54.0125 53.4 53.15 48.55 53.15H43.9875V71.1875H44Z"
  fill="#1F1F1F"/>
</g>
</g>
</svg>
