<svg width="100" height="100" viewBox="0 0 100 100" fill="none" xmlns="http://www.w3.org/2000/svg">
<g id="C-v 1">
<g id="rond seul">
<path id="Vector" d="M50 96.25C75.5432 96.25 96.25 75.5432 96.25 50C96.25 24.4568 75.5432 3.75 50 3.75C24.4568 3.75 3.75 24.4568 3.75 50C3.75 75.5432 24.4568 96.25 50 96.25Z"
fill="#3083DC" stroke="#1F1F1F" strokeWidth="5" strokeMiterlimit="10"/>
<path id="Vector_2" d="M67.5 23.2249V33.8874C62.3 29.5374 56.9125 27.3624 51.35 27.3624C45.225 27.3624 40.0625 29.5624 35.8625 33.9624C31.6375 38.3374 29.525 43.6999 29.525 50.0374C29.525 56.3749 31.6375 61.5749 35.8625 65.8749C40.0875 70.1749 45.2625 72.3249 51.3875 72.3249C54.55 72.3249 57.25 71.8124 59.4625 70.7749C60.7 70.2624 61.975 69.5624 63.3125 68.6874C64.6375 67.8124 66.0375 66.7499 67.5 65.5249V76.3749C62.35 79.2874 56.9375 80.7374 51.275 80.7374C42.75 80.7374 35.475 77.7624 29.45 71.8124C23.45 65.8124 20.45 58.5749 20.45 50.0999C20.45 42.4999 22.9625 35.7249 27.9875 29.7749C34.1625 22.4874 42.1625 18.8374 51.975 18.8374C57.325 18.8374 62.5125 20.2999 67.5 23.1999V23.2249Z" fill="#1F1F1F"/>
</g>
</g>
</svg>
