<svg width="100" height="100" viewBox="0 0 100 100" fill="none" xmlns="http://www.w3.org/2000/svg">
<g id="D-o 1">
<g id="rond seul">
<path id="Vector" d="M50 96.25C75.5432 96.25 96.25 75.5432 96.25 50C96.25 24.4568 75.5432 3.75 50 3.75C24.4568 3.75 3.75 24.4568 3.75 50C3.75 75.5432 24.4568 96.25 50 96.25Z" fill="#36B39C" stroke="#1F1F1F" stroke-width="5" stroke-miterlimit="10"/>
</g>
<g id="lettres-no-vecto">
<path id="Vector_2" d="M33.225 79.4249V19.7749H45.7375C51.7375 19.7749 56.475 20.3624 59.95 21.5499C63.6875 22.7124 67.075 24.6749 70.1125 27.4624C76.2625 33.0749 79.35 40.4499 79.35 49.5999C79.35 58.7499 76.15 66.1874 69.7375 71.8499C66.5125 74.6874 63.15 76.6499 59.6125 77.7624C56.3125 78.8749 51.6375 79.4249 45.5875 79.4249H33.225ZM42.225 70.9624H46.2875C50.325 70.9624 53.6875 70.5374 56.375 69.6874C59.05 68.7874 61.475 67.3624 63.6375 65.3999C68.0625 61.3624 70.2875 56.0874 70.2875 49.5999C70.2875 43.1124 68.1 37.7499 63.725 33.6874C59.7875 30.0624 53.975 28.2374 46.3 28.2374H42.2375V70.9624H42.225Z" fill="#1F1F1F"/>
</g>
</g>
</svg>
