<svg width="100" height="100" viewBox="0 0 100 100" fill="none" xmlns="http://www.w3.org/2000/svg">
<g id="empty">
<g id="rond seul">
<path id="Vector" d="M50.25 96.5C75.7932 96.5 96.5 75.7932 96.5 50.25C96.5 24.7068 75.7932 4 50.25 4C24.7068 4 4 24.7068 4 50.25C4 75.7932 24.7068 96.5 50.25 96.5Z" stroke="#1F1F1F" stroke-width="5" stroke-miterlimit="10"/>
<path id="Vector_2" d="M59.8286 57.8091C60.0969 58.0774 60.2476 58.4413 60.2476 58.8207C60.2476 59.2001 60.0969 59.5639 59.8286 59.8322C59.5604 60.1005 59.1965 60.2512 58.8171 60.2512C58.4377 60.2512 58.0738 60.1005 57.8056 59.8322L50.25 52.2743L42.6921 59.8298C42.4238 60.0981 42.0599 60.2488 41.6805 60.2488C41.3011 60.2488 40.9373 60.0981 40.669 59.8298C40.4007 59.5615 40.25 59.1977 40.25 58.8183C40.25 58.4389 40.4007 58.075 40.669 57.8068L48.2269 50.2512L40.6714 42.6932C40.4031 42.425 40.2524 42.0611 40.2524 41.6817C40.2524 41.3023 40.4031 40.9385 40.6714 40.6702C40.9396 40.4019 41.3035 40.2512 41.6829 40.2512C42.0623 40.2512 42.4262 40.4019 42.6944 40.6702L50.25 48.2281L57.8079 40.669C58.0762 40.4007 58.4401 40.25 58.8195 40.25C59.1989 40.25 59.5627 40.4007 59.831 40.669C60.0993 40.9373 60.25 41.3011 60.25 41.6805C60.25 42.0599 60.0993 42.4238 59.831 42.6921L52.2731 50.2512L59.8286 57.8091Z" fill="#1F1F1F"/>
</g>
</g>
</svg>
