<svg width="100" height="100" viewBox="0 0 100 100" fill="none" xmlns="http://www.w3.org/2000/svg">
<g id="fAltSixte 1">
<g id="rond seul">
<path id="Vector" d="M50 96.25C75.5432 96.25 96.25 75.5432 96.25 50C96.25 24.4568 75.5432 3.75 50 3.75C24.4568 3.75 3.75 24.4568 3.75 50C3.75 75.5432 24.4568 96.25 50 96.25Z" fill="#FF331F" stroke="#1F1F1F" stroke-width="5" stroke-miterlimit="10"/>
</g>
<g id="Group 6">
<path id="path3037" d="M71.425 45.1873C71.425 45.5498 71.1125 45.8873 70.7125 45.8873C70.3125 45.8873 69.9625 45.5623 69.9625 45.1873V39.8748L66.6875 41.0123V46.7998C66.6875 47.1623 66.3375 47.4998 65.9375 47.4998C65.5375 47.4998 65.225 47.1748 65.225 46.7998V41.4873L63.9625 41.9248C63.8875 41.9623 63.7625 41.9623 63.6875 41.9623C63.25 41.9623 62.9 41.6373 62.9 41.2248V39.0248C62.9 38.7373 63.1 38.4373 63.4125 38.3248L65.225 37.7373V31.8748L63.9625 32.2748C63.8875 32.3123 63.7625 32.3123 63.6875 32.3123C63.25 32.3123 62.9 31.9873 62.9 31.5748V29.3748C62.9 29.0873 63.1 28.8248 63.4125 28.7123L65.225 28.0873V22.2998C65.225 21.9373 65.5375 21.5998 65.9375 21.5998C66.3375 21.5998 66.6875 21.9248 66.6875 22.2998V27.6123L69.9625 26.4748V20.6873C69.9625 20.3248 70.3125 19.9873 70.7125 19.9873C71.1125 19.9873 71.425 20.3123 71.425 20.6873V25.9998L72.6875 25.5623C72.7625 25.5248 72.8875 25.5248 72.9625 25.5248C73.4 25.5248 73.75 25.8498 73.75 26.2623V28.4623C73.75 28.7498 73.55 29.0498 73.2375 29.1623L71.425 29.7498V35.6123L72.6875 35.2123C72.7625 35.1748 72.8875 35.1748 72.9625 35.1748C73.4 35.1748 73.75 35.4998 73.75 35.9123V38.1123C73.75 38.3998 73.55 38.6623 73.2375 38.7748L71.425 39.3998V45.1873ZM66.6875 31.3623V37.2248L69.9625 36.1248V30.2623L66.6875 31.3623Z" fill="#1F1F1F"/>
<g id="lettres-no-vecto">
<path id="Vector_2" d="M56.7625 28.2374H35.975V42.5749H56.025V51.0374H35.975V79.4249H26.975V19.7749H56.7625V28.2374Z" fill="#1F1F1F"/>
</g>
</g>
</g>
</svg>
