<svg width="100" height="100" viewBox="0 0 100 100" fill="none" xmlns="http://www.w3.org/2000/svg">
<g id="G-o 1">
<g id="rond seul">
<path id="Vector" d="M50 96.25C75.5432 96.25 96.25 75.5432 96.25 50C96.25 24.4568 75.5432 3.75 50 3.75C24.4568 3.75 3.75 24.4568 3.75 50C3.75 75.5432 24.4568 96.25 50 96.25Z" fill="#3083DC" stroke="#1F1F1F" stroke-width="5" stroke-miterlimit="10"/>
</g>
<g id="lettres-no-vecto">
<path id="Vector_2" d="M52.6625 47.8127H77.3125V49.7877C77.3125 54.2627 76.7875 58.2377 75.725 61.6877C74.7 64.8752 72.9625 67.8627 70.5125 70.6502C64.975 76.8877 57.9375 80.0002 49.3875 80.0002C40.8375 80.0002 33.9 76.9877 27.95 70.9627C22 64.9127 19.025 57.6502 19.025 49.1752C19.025 40.7002 22.05 33.1877 28.1 27.1502C34.15 21.1002 41.5125 18.0752 50.2 18.0752C54.8625 18.0752 59.2125 19.0252 63.2625 20.9377C67.125 22.8502 70.925 25.9377 74.6625 30.2127L68.25 36.3502C63.3625 29.8377 57.4 26.5752 50.3625 26.5752C44.05 26.5752 38.7625 28.7502 34.4875 33.1002C30.2125 37.3752 28.075 42.7377 28.075 49.1752C28.075 55.6127 30.4625 61.2877 35.225 65.5877C39.675 69.5752 44.5125 71.5752 49.7125 71.5752C54.1375 71.5752 58.125 70.0877 61.65 67.1002C65.175 64.0877 67.15 60.4877 67.5625 56.2877H52.6875V47.8252L52.6625 47.8127Z" fill="#1F1F1F"/>
</g>
</g>
</svg>
